<?xml version="1.0" encoding="UTF-8" standalone="no"?>
<svg
   viewBox="0 0 32 32"
   version="1.1"
   id="svg8"
   sodipodi:docname="gamepad_favicon.svg"
   inkscape:version="1.4.2 (ebf0e940d0, 2025-05-08)"
   xmlns:inkscape="http://www.inkscape.org/namespaces/inkscape"
   xmlns:sodipodi="http://sodipodi.sourceforge.net/DTD/sodipodi-0.dtd"
   xmlns="http://www.w3.org/2000/svg"
   xmlns:svg="http://www.w3.org/2000/svg">
  <sodipodi:namedview
     id="namedview8"
     pagecolor="#ffffff"
     bordercolor="#000000"
     borderopacity="0.25"
     inkscape:showpageshadow="2"
     inkscape:pageopacity="0.0"
     inkscape:pagecheckerboard="0"
     inkscape:deskcolor="#d1d1d1"
     inkscape:zoom="18.485107"
     inkscape:cx="17.879258"
     inkscape:cy="19.1776"
     inkscape:window-width="1920"
     inkscape:window-height="1008"
     inkscape:window-x="0"
     inkscape:window-y="0"
     inkscape:window-maximized="1"
     inkscape:current-layer="svg8" />
  <defs
     id="defs4">
    <linearGradient
       id="gamepadGradient"
       x1="-0.00013246489"
       y1="74.102616"
       x2="443.59618"
       y2="517.69893"
       gradientTransform="scale(1.1550314,0.86577733)"
       gradientUnits="userSpaceOnUse">
      <stop
         offset="0%"
         style="stop-color:#6366f1;stop-opacity:1"
         id="stop1" />
      <stop
         offset="50%"
         style="stop-color:#7c3aed;stop-opacity:1"
         id="stop2" />
      <stop
         offset="100%"
         style="stop-color:#8b5cf6;stop-opacity:1"
         id="stop3" />
    </linearGradient>
    <filter
       id="subtleGlow"
       x="-0.0023420681"
       y="-0.0031245473"
       width="1.0046841"
       height="1.0062491">
      <feGaussianBlur
         stdDeviation="0.5"
         result="coloredBlur"
         id="feGaussianBlur3" />
      <feMerge
         id="feMerge4">
        <feMergeNode
           in="coloredBlur"
           id="feMergeNode3" />
        <feMergeNode
           in="SourceGraphic"
           id="feMergeNode4" />
      </feMerge>
    </filter>
  </defs>
  <!-- Gamepad Icon -->
  <g
     transform="matrix(0.05436246,0,0,0.05184721,2.447884,3.0475532)"
     filter="url(#subtleGlow)"
     id="g8">
    <path
       d="m 447.303,128.681 c -0.427,-1.259 -0.875,-3.264 -1.408,-5.525 -3.52,-14.315 -6.827,-27.84 -19.904,-32.832 l -62.08,-23.616 c -12.032,-4.565 -25.515,-2.923 -36.139,4.48 l -3.84,3.435 c -3.115,3.563 -7.339,8.021 -10.347,10.88 H 199.197 c -2.539,-2.667 -5.931,-6.592 -8.768,-10.112 l -4.437,-4.16 C 175.368,63.807 161.843,62.1 149.875,66.708 L 87.73,90.324 c -13.013,4.949 -16.277,18.325 -19.755,32.512 -0.533,2.155 -0.981,4.117 -0.811,4.117 0,0 0.021,0 0.043,-0.021 -21.162,41.728 -121.813,252.97 -27.584,315.328 13.483,8.917 31.424,7.509 43.691,-3.456 l 73.856,-66.219 c 6.507,-5.845 14.784,-9.067 23.275,-9.067 h 152.853 c 8.491,0 16.747,3.221 23.275,9.067 l 73.856,66.219 c 6.955,6.229 15.616,9.408 24.277,9.408 6.955,0 13.888,-2.069 19.883,-6.293 83.157,-58.347 8.234,-239.425 -27.286,-313.238 z"
       fill="url(#gamepadGradient)"
       stroke="none"
       id="path4"
       style="fill:url(#gamepadGradient)" />
    <!-- D-pad (left cross) -->
    <rect
       x="107"
       y="200"
       width="106"
       height="36"
       fill="#ffffff"
       rx="20"
       id="rect4" />
    <rect
       x="143"
       y="164"
       width="36"
       height="106"
       fill="#ffffff"
       rx="20"
       id="rect5" />
    <!-- Action buttons (right side) -->
    <circle
       cx="341.46899"
       cy="170.83501"
       r="21.333"
       fill="#ffffff"
       id="circle5" />
    <circle
       cx="298.802"
       cy="213.50301"
       r="21.333"
       fill="#ffffff"
       id="circle6" />
    <circle
       cx="341.46899"
       cy="256.16901"
       r="21.333"
       fill="#ffffff"
       id="circle7" />
    <circle
       cx="384.13501"
       cy="213.50301"
       r="21.333"
       fill="#ffffff"
       id="circle8" />
  </g>
</svg>
